<?xml version="1.0" encoding="UTF-8"?>
<svg width="20px" height="18px" viewBox="0 0 20 18" version="1.1" xmlns="http://www.w3.org/2000/svg" xmlns:xlink="http://www.w3.org/1999/xlink">
    <!-- Generator: Sketch 50.2 (55047) - http://www.bohemiancoding.com/sketch -->
    <title>发送</title>
    <desc>Created with Sketch.</desc>
    <defs></defs>
    <g id="Page-1" stroke="none" stroke-width="1" fill="none" fill-rule="evenodd">
        <g id="02-chat1" transform="translate(-360.000000, -697.000000)" fill="#3389EE">
            <g id="导航1-有底">
                <g id="输入框" transform="translate(0.000000, 676.000000)">
                    <g id="Group-6" transform="translate(66.000000, 10.000000)">
                        <g id="发送-面" transform="translate(294.000000, 11.000000)">
                            <path d="M19.7411754,9.45584271 L0.876829013,17.9488085 C0.562078843,18.090513 0.192049236,17.9502318 0.0503447536,17.6354816 C0.000700809892,17.5252138 -0.0158880512,17.4029121 0.00258941946,17.2834044 L1.01614687,10.7279663 C1.05921586,10.4494068 1.28341105,10.2341454 1.56349083,10.2024331 L10.5385059,9.18622778 C10.6414018,9.17457728 10.7153709,9.08171906 10.7037204,8.97882314 C10.693887,8.89197589 10.6253532,8.82344205 10.5385059,8.81360868 L1.56349083,7.7974034 C1.28341105,7.76569108 1.05921586,7.55042967 1.01614687,7.27187013 L0.00258941946,0.716432077 C-0.050152974,0.375307364 0.183627087,0.0560149874 0.5247518,0.00327259394 C0.644259495,-0.0152048767 0.766561225,0.00138398437 0.876829013,0.051027928 L19.7411754,8.54399375 C19.9929756,8.65735734 20.1052006,8.95338102 19.991837,9.20518116 C19.9417001,9.31654389 19.8525382,9.4057058 19.7411754,9.45584271 Z" id="发送"></path>
                        </g>
                    </g>
                </g>
            </g>
        </g>
    </g>
</svg>